HIERARCHY
ROOT root
{
	OFFSET 0.000000 0.000000 0.000000
	CHANNELS 6 Xposition Yposition Zposition Zrotation Yrotation Xrotation
	JOINT lhip
	{
		OFFSET 0.058581 -0.082280 -0.017664
		CHANNELS 3 Zrotation Yrotation Xrotation
		JOINT lknee
		{
			OFFSET 0.043451 -0.386469 0.008037
			CHANNELS 3 Zrotation Yrotation Xrotation
			JOINT lankle
			{
				OFFSET -0.014790 -0.426874 -0.037428
				CHANNELS 3 Zrotation Yrotation Xrotation
				JOINT ltoe
				{
					OFFSET 0.041054 -0.060286 0.122042
					CHANNELS 3 Zrotation Yrotation Xrotation
					End Site
					{
						OFFSET 0.000000 0.000000 0.000000
					}
				}
			}
		}
	}
	JOINT rhip
	{
		OFFSET -0.060310 -0.090513 -0.013543
		CHANNELS 3 Zrotation Yrotation Xrotation
		JOINT rknee
		{
			OFFSET -0.043257 -0.383688 -0.004843
			CHANNELS 3 Zrotation Yrotation Xrotation
			JOINT rankle
			{
				OFFSET 0.019056 -0.420046 -0.034562
				CHANNELS 3 Zrotation Yrotation Xrotation
				JOINT rtoe
				{
					OFFSET -0.034840 -0.062106 0.130323
					CHANNELS 3 Zrotation Yrotation Xrotation
					End Site
					{
						OFFSET 0.000000 0.000000 0.000000
					}
				}
			}
		}
	}
	JOINT lowerback
	{
		OFFSET 0.004439 0.124404 -0.038385
		CHANNELS 3 Zrotation Yrotation Xrotation
		JOINT upperback
		{
			OFFSET 0.004488 0.137956 0.026820
			CHANNELS 3 Zrotation Yrotation Xrotation
			JOINT chest
			{
				OFFSET -0.002265 0.056032 0.002855
				CHANNELS 3 Zrotation Yrotation Xrotation
				JOINT lowerneck
				{
					OFFSET -0.013390 0.211636 -0.033468
					CHANNELS 3 Zrotation Yrotation Xrotation
					JOINT upperneck
					{
						OFFSET 0.010113 0.088937 0.050410
						CHANNELS 3 Zrotation Yrotation Xrotation
						End Site
						{
							OFFSET 0.000000 0.000000 0.000000
						}
					}
				}
				JOINT lclavicle
				{
					OFFSET 0.071702 0.114000 -0.018898
					CHANNELS 3 Zrotation Yrotation Xrotation
					JOINT lshoulder
					{
						OFFSET 0.122921 0.045205 -0.019046
						CHANNELS 3 Zrotation Yrotation Xrotation
						JOINT lelbow
						{
							OFFSET 0.255332 -0.015649 -0.022946
							CHANNELS 3 Zrotation Yrotation Xrotation
							JOINT lwrist
							{
								OFFSET 0.265709 0.012698 -0.007375
								CHANNELS 3 Zrotation Yrotation Xrotation
								End Site
								{
									OFFSET 0.000000 0.000000 0.000000
								}
							}
						}
					}
				}
				JOINT rclavicle
				{
					OFFSET -0.082954 0.112472 -0.023707
					CHANNELS 3 Zrotation Yrotation Xrotation
					JOINT rshoulder
					{
						OFFSET -0.113228 0.046853 -0.008472
						CHANNELS 3 Zrotation Yrotation Xrotation
						JOINT relbow
						{
							OFFSET -0.260127 -0.014369 -0.031269
							CHANNELS 3 Zrotation Yrotation Xrotation
							JOINT rwrist
							{
								OFFSET -0.269108 0.006794 -0.006027
								CHANNELS 3 Zrotation Yrotation Xrotation
								End Site
								{
									OFFSET 0.000000 0.000000 0.000000
								}
							}
						}
					}
				}
			}
		}
	}
}
MOTION
Frames: 17
Frame Time: 0.033333
-0.416693 0.009482 0.982690 97.046667 -3.987299 85.592506 3.180357 -1.438906 -2.546740 -2.540102 -2.565486 40.669898 2.314797 13.342857 -15.748777 0.000000 -0.000000 0.000000 2.552545 -3.998250 -4.711624 -1.923003 -9.112329 23.129576 -3.732807 -13.561743 -24.455983 0.000000 -0.000000 0.000000 1.045931 2.251283 16.155978 -2.535192 3.221653 0.505762 -1.380897 1.498449 4.460365 -5.266909 30.608257 7.607968 -6.807589 28.945677 14.162598 -29.924404 7.988584 -2.028455 -58.017656 -3.396737 5.648485 19.644540 -48.648956 -8.880968 14.130632 0.649364 -21.137466 28.476544 -5.763212 6.797938 60.239927 2.094432 14.513499 -25.239685 47.361682 -13.654348 -6.053143 4.516789 -11.373002 
-0.437951 0.020676 0.979568 101.842397 -3.709372 85.675562 5.271009 0.232366 -0.664565 -2.563842 -3.891148 38.537358 1.056083 12.726733 -15.221996 0.000000 -0.000000 0.000000 1.774584 -4.637398 -6.914261 -2.285761 -11.852808 24.666399 -3.823791 -14.908911 -24.542484 0.000000 -0.000000 0.000000 0.778829 1.017278 15.865617 -2.187540 3.081339 0.389827 -1.241450 0.913318 4.421746 -4.404673 29.671122 7.280243 -6.697322 27.716553 15.123376 -30.467179 8.430520 -1.913044 -57.425913 -3.764517 5.602353 18.438579 -48.080674 -7.643684 13.983162 0.316107 -20.589364 29.100825 -6.579976 6.033415 59.502383 2.183372 14.192040 -25.255790 47.177692 -14.016209 -6.066149 4.588237 -11.489927 
-0.457511 0.033433 0.977596 106.396775 -2.977570 85.348177 7.319369 1.020957 2.176043 -2.768575 -5.700709 34.351350 -1.707750 10.934336 -14.107367 0.000000 -0.000000 0.000000 0.955656 -5.239369 -8.639311 -2.404423 -13.820321 26.726739 -3.563757 -16.161693 -24.385925 0.000000 -0.000000 0.000000 1.268597 0.033288 15.293477 -1.615619 2.813133 1.385704 -1.268577 0.465833 4.083158 -3.830529 28.538680 7.727929 -6.959449 26.572886 15.212666 -31.496745 8.283385 -1.720619 -56.825485 -3.931004 5.780979 18.162600 -47.229147 -7.429735 14.365834 0.260413 -19.926777 29.647535 -6.376266 5.826390 58.526797 2.249430 13.716257 -25.641015 46.002775 -15.258216 -6.833982 4.597868 -11.397501 
-0.480021 0.046745 0.974993 110.118118 -2.545151 85.323736 7.909823 0.499806 4.851576 -3.876866 -9.929634 29.194872 -4.221774 8.244574 -12.694992 0.000000 -0.000000 0.000000 -0.417029 -5.737623 -10.940738 -2.790973 -15.962562 29.306266 -3.148530 -16.844519 -24.346494 0.000000 -0.000000 0.000000 1.451297 -0.548715 15.396048 -1.338142 2.859873 1.530112 -1.148543 0.138580 3.838171 -3.082496 27.786296 7.646155 -7.145578 24.838628 15.701345 -31.747651 8.573675 -1.608711 -57.219811 -4.020705 6.306598 18.145882 -46.764961 -7.053578 14.140477 -0.250831 -19.637769 30.091907 -6.315076 5.573589 57.610743 2.514108 13.214502 -25.946715 44.769113 -16.061066 -6.047306 4.808188 -10.990768 
-0.503519 0.060323 0.971480 112.783695 -1.833687 85.663480 8.342766 0.452178 6.993007 -3.775899 -12.470845 22.613038 -4.566524 7.862828 -16.961783 0.000000 -0.000000 0.000000 -1.341689 -6.259811 -13.454943 -3.187406 -17.092612 31.628013 -2.293035 -17.362656 -24.083378 0.000000 -0.000000 0.000000 1.900318 -1.025050 15.328203 -1.054715 3.224516 1.372120 -0.919587 0.222749 3.963121 -2.607586 26.784536 7.393443 -7.683301 23.340347 15.951498 -32.101076 8.942230 -1.610334 -57.548578 -4.030299 6.719428 17.249090 -46.546157 -6.261365 14.324403 -0.682563 -19.484757 30.037579 -6.138218 5.299767 56.569213 3.086941 12.916598 -25.641310 43.637482 -16.682292 -6.213794 4.961473 -10.375875 
-0.526930 0.073363 0.968536 114.463704 -1.406070 85.862325 8.658098 2.206647 8.467856 -3.733358 -10.993253 16.682811 -2.633991 7.582612 -19.751876 0.000000 -0.000000 0.000000 -2.415047 -6.671922 -15.499955 -3.586020 -17.614750 33.234226 -1.655697 -17.888751 -23.355599 0.000000 -0.000000 0.000000 1.771983 -1.375821 15.654903 -0.883231 3.883392 1.344835 -0.612829 0.450549 3.717753 -2.412865 25.605198 6.903619 -8.018283 22.763952 16.363200 -32.794052 9.008619 -1.369180 -56.997652 -3.720581 6.875760 16.417082 -46.511015 -5.579445 13.894949 -1.303253 -18.624296 30.908701 -5.354943 5.435176 54.473517 3.845958 12.592812 -25.767180 42.481920 -18.286314 -5.835313 5.205283 -9.220154 
-0.551057 0.085028 0.966982 116.145689 -1.344208 86.329578 7.777714 3.452956 8.223852 -3.896893 -8.877015 12.984141 -0.701797 8.566537 -21.060139 0.000000 -0.000000 0.000000 -3.773180 -7.144863 -17.646002 -4.082492 -18.242638 34.352049 -1.382868 -18.300168 -22.050510 0.000000 -0.000000 0.000000 1.515987 -1.509393 16.443914 -0.990892 4.142221 0.509030 -0.571151 0.292528 3.571101 -2.113314 24.288510 6.161768 -8.245530 22.204954 16.851621 -32.777011 9.340227 -1.116107 -56.685411 -3.365699 7.015191 15.505705 -46.044548 -4.743485 13.198414 -1.956466 -18.062682 31.912189 -4.761079 5.115563 52.944913 5.209965 12.562305 -25.506250 40.392901 -19.196906 -5.260884 5.548151 -7.231759 
-0.574486 0.094392 0.966529 118.353996 -1.064554 87.179941 7.136401 4.424478 6.192676 -4.048554 -9.425662 11.850924 0.486509 8.132697 -22.024812 0.000000 -0.000000 0.000000 -4.340451 -8.036332 -19.449499 -4.771068 -18.856769 34.436887 -1.374742 -18.645955 -21.008746 0.000000 -0.000000 0.000000 1.745003 -1.865643 16.977452 -1.013451 3.960944 -0.527769 -0.640621 0.074374 3.678986 -2.687708 23.823632 4.728420 -8.414080 21.192600 17.320906 -32.329846 9.853039 -0.891440 -56.839063 -3.410268 7.010958 14.153398 -45.018986 -2.916705 12.987998 -1.761736 -18.806699 32.284862 -4.897544 4.004858 52.354642 6.854986 12.306684 -24.801693 38.597347 -18.434492 -4.209642 5.624198 -5.980779 
-0.594382 0.102356 0.967520 120.049661 -0.678462 87.403105 6.897257 4.522171 5.175654 -4.559434 -10.441761 10.897754 1.129871 7.651899 -22.402493 0.000000 -0.000000 0.000000 -4.501949 -7.772479 -19.962848 -4.972818 -18.969557 34.134647 -1.000604 -18.695971 -22.988859 0.000000 -0.000000 0.000000 1.786118 -2.024002 17.465669 -0.858481 3.852193 -0.830197 -0.477634 0.133035 3.754806 -3.010713 23.150432 3.784230 -8.827982 19.939661 17.498552 -31.823538 9.237220 -0.460153 -57.340068 -3.243381 7.055667 14.517103 -42.768323 -2.565217 13.252785 -2.101737 -18.914048 32.279935 -3.896306 4.393608 52.147876 7.952629 11.743217 -25.054971 37.265234 -18.803363 -5.155567 5.940717 -5.883653 
-0.611521 0.108344 0.970179 120.885313 -0.306804 87.400294 6.230352 3.898725 4.582872 -4.443365 -10.828517 10.208229 1.741525 8.177826 -22.137496 0.000000 -0.000000 0.000000 -4.050308 -6.506536 -20.245286 -4.251493 -16.774433 34.220761 -0.268098 -17.235346 -25.109789 0.000000 -0.000000 0.000000 1.820899 -1.886707 18.132332 -0.742202 3.880986 -1.078187 -0.491845 0.326211 3.697069 -3.237193 22.721915 3.048329 -9.196416 18.527836 17.718898 -31.629893 8.762521 -0.598562 -56.978779 -2.580097 7.206897 14.370034 -41.191806 -3.002012 13.990923 -1.975905 -18.190149 32.549159 -2.946694 4.292528 51.605694 8.492404 11.870887 -24.738790 36.610284 -18.690692 -6.261327 5.958833 -5.750979 
-0.625552 0.113530 0.973726 121.319969 0.033575 86.996927 5.370598 2.684005 4.280816 -3.950377 -10.936677 10.155760 1.719135 9.098899 -21.487137 0.000000 -0.000000 0.000000 -3.332155 -4.677812 -19.682146 -2.952056 -14.255990 35.168915 1.355209 -14.356730 -26.268633 0.000000 -0.000000 0.000000 1.885294 -1.503298 18.187430 -0.532561 4.004152 -0.235793 -0.566867 0.560847 3.747179 -3.289984 22.252083 2.457546 -9.669493 16.709125 17.926038 -31.760102 7.972293 -0.840404 -56.599396 -2.456805 7.373544 15.011672 -38.939363 -4.548398 13.462826 -2.316611 -16.784823 32.765617 -1.652816 4.108209 51.024207 8.906566 12.246806 -24.384893 36.103853 -18.530630 -6.869429 6.077086 -5.865477 
-0.637463 0.118278 0.977745 121.786431 0.487180 86.571956 4.806814 1.732320 4.228860 -3.578513 -11.652704 10.054886 2.040349 10.088649 -21.053379 0.000000 -0.000000 0.000000 -2.389724 -2.509504 -18.774769 -1.213142 -12.287614 36.923527 2.737082 -11.390933 -26.215390 0.000000 -0.000000 0.000000 1.982421 -1.753073 18.522475 -0.353167 4.247227 -0.164553 -0.619791 0.910867 3.718645 -3.207522 21.615130 2.231151 -10.003460 15.467253 18.091180 -31.891192 7.907911 -1.313848 -56.566822 -2.108376 7.098178 15.839130 -36.939536 -5.894252 12.580135 -2.650157 -15.240437 32.476798 -1.022152 3.894452 51.017888 9.010528 12.542775 -23.944898 36.253098 -17.220710 -6.205862 6.308518 -5.109356 
-0.647414 0.122310 0.980127 122.202553 0.674782 86.221294 4.314580 0.835327 4.164868 -3.541052 -11.988841 10.042579 2.427169 10.716426 -20.768285 0.000000 -0.000000 0.000000 -1.318419 -0.639483 -17.603739 0.645512 -10.133263 39.014081 3.898466 -8.433076 -25.717576 0.000000 -0.000000 0.000000 1.765349 -1.812373 18.388824 -0.103071 4.245561 0.080024 -0.635964 1.068445 3.911931 -2.932337 21.025031 1.719247 -10.197990 14.346388 18.209783 -31.992272 7.896963 -1.416026 -56.455675 -1.705597 6.842438 16.521456 -36.054315 -7.914229 13.019320 -2.837460 -14.215706 32.290811 -0.593700 3.737942 50.919054 9.044172 13.041736 -23.146475 37.087804 -15.461765 -6.379635 6.967937 -4.160811 
-0.655450 0.125801 0.981526 122.932336 0.547362 85.990353 3.690086 0.124956 4.055412 -3.648403 -12.673755 9.988868 2.656720 11.209566 -20.416098 0.000000 -0.000000 0.000000 -0.247994 0.658505 -16.045574 1.964382 -8.292350 40.507016 4.531991 -7.052130 -25.421120 0.000000 -0.000000 0.000000 1.303037 -1.810152 18.400624 0.127865 3.939863 0.013144 -0.720282 1.045496 3.710575 -2.610368 20.549081 1.264739 -10.080129 13.161934 18.515307 -32.184960 8.067395 -1.430597 -55.540989 -0.742104 6.525881 16.290572 -36.407137 -9.369348 12.033298 -2.748917 -13.605045 32.596354 -0.520124 3.282742 50.890715 8.488915 13.543191 -23.411570 38.443260 -15.214395 -5.116458 7.000188 -3.692431 
-0.660640 0.129127 0.982009 123.590615 0.126514 85.860883 2.886740 -0.182974 4.145389 -3.611855 -12.849353 9.655910 2.969422 10.998273 -20.124231 0.000000 -0.000000 0.000000 0.720539 1.647357 -13.853232 2.262592 -7.207333 40.870562 4.562736 -6.373021 -25.095304 0.000000 -0.000000 0.000000 0.518559 -1.567394 17.641687 0.422428 3.712834 0.206656 -0.680193 0.890754 3.824180 -1.996653 19.673958 1.078860 -10.277473 11.743400 18.867065 -32.101766 8.293241 -1.704482 -55.580831 -0.734933 6.602713 16.879263 -35.063117 -9.113437 9.829996 -3.407584 -13.630166 32.914865 -0.945730 2.598620 51.285898 8.109500 14.208462 -23.966704 39.361870 -15.061957 -3.877582 6.984424 -4.647479 
-0.665543 0.132044 0.981934 124.506322 -0.406675 85.845454 1.964892 -0.864485 4.023446 -3.577819 -12.999179 9.471661 3.142750 11.014202 -19.886243 0.000000 -0.000000 0.000000 1.541152 1.711456 -11.314607 2.734209 -5.623438 39.602414 4.801669 -6.026685 -24.557988 0.000000 -0.000000 0.000000 0.091147 -1.084804 17.004388 0.517909 3.097758 0.127868 -0.785695 0.783655 3.955298 -1.843983 18.779241 0.815015 -9.989771 10.693110 19.094415 -32.222066 8.268389 -1.955252 -55.295614 -0.769425 6.571372 16.946901 -33.966237 -9.603409 11.672732 -3.061419 -13.050043 33.132754 -1.419308 2.120476 52.044922 7.548743 14.488602 -24.345204 39.788542 -15.014156 -4.541304 6.956894 -5.106686 
-0.669532 0.134069 0.981307 125.352720 -0.944801 85.971356 1.081140 -1.514675 3.526076 -3.614731 -13.097224 9.807618 3.154411 11.044740 -19.779544 0.000000 -0.000000 0.000000 2.297670 2.163835 -8.412822 3.165528 -4.195775 36.394077 5.151639 -5.785253 -23.612762 0.000000 -0.000000 0.000000 -0.294219 -0.723256 16.359933 0.466953 2.612598 -0.105507 -0.895312 0.798806 4.057924 -1.719748 17.883742 0.467495 -9.604718 9.578441 19.366246 -32.110442 8.445057 -2.307239 -55.633425 -1.252127 6.596319 17.368372 -32.944929 -10.337685 13.396254 -2.830908 -13.009870 33.120279 -1.901982 1.648023 53.035648 6.994870 14.914953 -24.355133 39.669527 -14.515835 -5.157159 6.959132 -5.575767 
